#!OML:ASF E:\emotionWalksFemale\Project 1\Capture day 1\Session 1\Female1.ASF
:FULLY-SPECIFIED
:DEGREES
413
root 8.20665 15.7055 25.2405 177.576 -1.42901 -182.646
lowerback 9.70512 -0.380672 -3.34282
upperback -4.56097 -1.19338 -1.14648
thorax -10.3261 -0.435305 0.877181
lowerneck -9.63484 -2.85221 -5.99574
upperneck 21.2402 -3.15735 5.61863
head 8.36206 -1.03538 2.63122
rclavicle -4.42296e-015 1.39149e-015
rhumerus -51.0739 7.31476 -86.2955
rradius 45.5684
rwrist -13.9054
rhand -2.16516 -45.2424
rfingers 7.12502
rthumb -156.485 466.175
lclavicle -4.42296e-015 1.39149e-015
lhumerus -33.644 -22.3502 87.7966
lradius 60.9658
lwrist 22.2051
lhand -17.2392 -42.1893
lfingers 7.12502
lthumb 9.00448 -12.4014
rfemur -32.5315 -10.5052 16.15
rtibia 111.877
rfoot -8.91159 1.48915
rtoes -14.6296
lfemur 4.23291 -21.0307 -30.8865
ltibia -9.34288e-015
lfoot -10.5502 16.5381
ltoes -5.97576
414
root 8.2029 15.7068 25.1137 177.376 -1.53294 -182.692
lowerback 9.83225 -0.499437 -3.34135
upperback -4.50545 -1.35435 -1.15796
thorax -10.334 -0.512006 0.89497
lowerneck -9.63712 -2.81455 -6.14804
upperneck 21.4251 -3.07335 5.66187
head 8.42306 -0.995782 2.68425
rclavicle -2.78299e-015 -2.60408e-014
rhumerus -52.818 7.07921 -85.849
rradius 44.773
rwrist -13.5024
rhand -2.21646 -44.8807
rfingers 7.12502
rthumb -156.534 466.53
lclavicle -2.78299e-015 -2.60408e-014
lhumerus -32.1698 -22.3631 86.9824
lradius 63.4294
lwrist 22.9072
lhand -17.2478 -42.4353
lfingers 7.12502
lthumb 8.99628 -12.6471
rfemur -34.5625 -10.1516 16.323
rtibia 113.581
rfoot -9.73051 1.06422
rtoes -14.8232
lfemur 5.00938 -20.7143 -31.1994
ltibia -1.0635e-014
lfoot -10.6767 16.2466
ltoes -7.93094
415
root 8.2012 15.7126 24.9805 177.304 -1.53871 -182.656
lowerback 9.76697 -0.558799 -3.32864
upperback -4.49561 -1.42532 -1.13016
thorax -10.2808 -0.546503 0.929592
lowerneck -9.54304 -2.75054 -6.19079
upperneck 21.5284 -2.95351 5.59775
head 8.43286 -0.943437 2.68505
rclavicle -4.19933e-015 -2.38542e-014
rhumerus -54.6155 6.94211 -85.4951
rradius 44.2434
rwrist -13.4367
rhand -2.32594 -44.5938
rfingers 7.12502
rthumb -156.639 466.804
lclavicle -4.19933e-015 -2.38542e-014
lhumerus -30.9202 -22.3573 86.2202
lradius 65.9631
lwrist 23.4273
lhand -17.2151 -42.4412
lfingers 7.12502
lthumb 9.02779 -12.6543
rfemur -36.6019 -9.59978 16.7187
rtibia 114.937
rfoot -10.2634 0.360229
rtoes -14.5335
lfemur 5.66508 -20.3273 -31.3531
ltibia -3.08986e-014
lfoot -10.8573 16.0386
ltoes -9.48747
416
root 8.19999 15.7195 24.8464 177.156 -1.55296 -182.532
lowerback 9.73609 -0.60832 -3.27627
upperback -4.44512 -1.47082 -1.07053
thorax -10.2035 -0.569274 0.971389
lowerneck -9.5715 -2.69077 -5.95513
upperneck 21.6593 -2.83439 5.27376
head 8.46686 -0.895466 2.54987
rclavicle 7.55382e-015 1.33186e-014
rhumerus -56.373 6.87161 -85.2358
rradius 43.7129
rwrist -13.3846
rhand -2.49116 -43.9336
rfingers 7.12502
rthumb -156.798 467.444
lclavicle 7.55382e-015 1.33186e-014
lhumerus -29.4885 -22.3708 85.4784
lradius 68.2082
lwrist 23.9682
lhand -17.0086 -41.9534
lfingers 7.12502
lthumb 9.22706 -12.1753
rfemur -38.4513 -8.99292 17.2538
rtibia 115.977
rfoot -10.4007 -0.576976
rtoes -14.1974
lfemur 6.41734 -19.9367 -31.4211
ltibia 1.39149e-014
lfoot -11.2934 15.7037
ltoes -9.94458
417
root 8.20346 15.723 24.7231 176.881 -1.90622 -182.395
lowerback 10.0531 -0.790297 -3.24111
upperback -4.37861 -1.70839 -1.01348
thorax -10.3075 -0.678424 1.06165
lowerneck -9.66956 -2.63257 -5.68703
upperneck 21.8168 -2.70933 4.88654
head 8.52195 -0.848962 2.38828
rclavicle 3.97569e-016 2.0276e-014
rhumerus -58.1772 7.14844 -85.2749
rradius 43.3371
rwrist -13.5498
rhand -2.45259 -43.8697
rfingers 7.12502
rthumb -156.761 467.513
lclavicle 3.97569e-016 2.0276e-014
lhumerus -27.7395 -22.5536 84.6121
lradius 70.0351
lwrist 24.5232
lhand -16.9938 -41.7558
lfingers 7.12502
lthumb 9.24134 -11.9783
rfemur -40.008 -8.74974 17.7226
rtibia 116.729
rfoot -10.5084 -1.50621
rtoes -12.9484
lfemur 7.28504 -19.8543 -31.5289
ltibia 2.98177e-015
lfoot -11.7974 15.4411
ltoes -11.7078
